<svg width="40" height="40" viewBox="0 0 40 40" fill="none" xmlns="http://www.w3.org/2000/svg">
<path d="M3.33339 20C3.33339 10.795 10.7951 3.33333 20.0001 3.33333C29.2051 3.33333 36.6667 10.795 36.6667 20C36.6667 29.205 29.2051 36.6667 20.0001 36.6667H3.33339L8.21505 31.785C6.66511 30.2391 5.43595 28.4021 4.59819 26.3796C3.76043 24.3572 3.3306 22.1891 3.33339 20V20ZM11.3801 33.3333H20.0001C22.6371 33.3333 25.215 32.5513 27.4077 31.0863C29.6003 29.6212 31.3093 27.5388 32.3184 25.1024C33.3276 22.6661 33.5917 19.9852 33.0772 17.3988C32.5627 14.8124 31.2928 12.4366 29.4281 10.5719C27.5634 8.7072 25.1877 7.43733 22.6013 6.92286C20.0148 6.40839 17.334 6.67243 14.8976 7.6816C12.4613 8.69077 10.3789 10.3997 8.91379 12.5924C7.44871 14.785 6.66672 17.3629 6.66672 20C6.66672 23.5867 8.08505 26.9417 10.5717 29.4283L12.9284 31.785L11.3801 33.3333V33.3333ZM18.3334 10H21.6667V30H18.3334V10ZM11.6667 15H15.0001V25H11.6667V15ZM25.0001 15H28.3334V25H25.0001V15Z" fill="black"/>
</svg>
