<svg width="64" height="64" viewBox="0 0 64 64" fill="none" xmlns="http://www.w3.org/2000/svg">
<path d="M55.4 5H8.6C4.9 5 2 7.9 2 11.5V41.3C2 44.9 4.9 47.8 8.6 47.8H15.5V59L25.9 47.8H55.5C59.1 47.8 62.1 44.9 62.1 41.3V11.5C62 7.9 59.1 5 55.4 5Z" fill="black" fill-opacity="0.65"/>
<path d="M16 30.6C18.3196 30.6 20.2 28.7196 20.2 26.4C20.2 24.0804 18.3196 22.2 16 22.2C13.6804 22.2 11.8 24.0804 11.8 26.4C11.8 28.7196 13.6804 30.6 16 30.6Z" fill="white"/>
<path d="M32 30.6C34.3196 30.6 36.2 28.7196 36.2 26.4C36.2 24.0804 34.3196 22.2 32 22.2C29.6804 22.2 27.8 24.0804 27.8 26.4C27.8 28.7196 29.6804 30.6 32 30.6Z" fill="white"/>
<path d="M48 30.6C50.3196 30.6 52.2 28.7196 52.2 26.4C52.2 24.0804 50.3196 22.2 48 22.2C45.6804 22.2 43.8 24.0804 43.8 26.4C43.8 28.7196 45.6804 30.6 48 30.6Z" fill="white"/>
</svg>
