<svg width="40" height="40" viewBox="0 0 40 40" fill="none" xmlns="http://www.w3.org/2000/svg">
<path d="M33.125 12.5C32.2597 12.5 31.4138 12.7566 30.6944 13.2373C29.9749 13.7181 29.4142 14.4013 29.083 15.2008C28.7519 16.0002 28.6653 16.8799 28.8341 17.7285C29.0029 18.5772 29.4196 19.3567 30.0314 19.9686C30.6433 20.5804 31.4228 20.9971 32.2715 21.1659C33.1201 21.3347 33.9998 21.2481 34.7992 20.917C35.5987 20.5858 36.2819 20.0251 36.7627 19.3056C37.2434 18.5862 37.5 17.7403 37.5 16.875C37.4959 15.7159 37.0336 14.6055 36.214 13.786C35.3945 12.9664 34.2841 12.5041 33.125 12.5V12.5ZM33.125 18.75C32.7542 18.75 32.3917 18.64 32.0833 18.434C31.775 18.228 31.5346 17.9351 31.3927 17.5925C31.2508 17.2499 31.2137 16.8729 31.286 16.5092C31.3584 16.1455 31.537 15.8114 31.7992 15.5492C32.0614 15.287 32.3955 15.1084 32.7592 15.036C33.1229 14.9637 33.4999 15.0008 33.8425 15.1427C34.1851 15.2846 34.478 15.525 34.684 15.8333C34.89 16.1417 35 16.5042 35 16.875C35 17.3723 34.8025 17.8492 34.4508 18.2008C34.0992 18.5525 33.6223 18.75 33.125 18.75V18.75ZM11.25 16.875C11.25 16.0097 10.9934 15.1638 10.5127 14.4444C10.032 13.7249 9.34867 13.1642 8.54924 12.833C7.74982 12.5019 6.87015 12.4153 6.02148 12.5841C5.17282 12.7529 4.39326 13.1696 3.78141 13.7814C3.16956 14.3933 2.75288 15.1728 2.58407 16.0215C2.41526 16.8701 2.5019 17.7498 2.83303 18.5492C3.16416 19.3487 3.72492 20.032 4.44438 20.5127C5.16385 20.9934 6.00971 21.25 6.875 21.25C8.03406 21.2459 9.14446 20.7836 9.96405 19.964C10.7836 19.1445 11.2459 18.0341 11.25 16.875ZM6.875 18.75C6.50416 18.75 6.14165 18.64 5.83331 18.434C5.52497 18.228 5.28464 17.9351 5.14273 17.5925C5.00081 17.2499 4.96368 16.8729 5.03603 16.5092C5.10838 16.1455 5.28695 15.8114 5.54918 15.5492C5.8114 15.287 6.14549 15.1084 6.50921 15.036C6.87292 14.9637 7.24992 15.0008 7.59253 15.1427C7.93514 15.2846 8.22798 15.525 8.43401 15.8333C8.64003 16.1417 8.75 16.5042 8.75 16.875C8.75 17.3723 8.55246 17.8492 8.20083 18.2008C7.8492 18.5525 7.37228 18.75 6.875 18.75V18.75ZM14.375 13.75C15.2403 13.75 16.0862 13.4934 16.8056 13.0127C17.5251 12.532 18.0858 11.8487 18.417 11.0492C18.7481 10.2498 18.8347 9.37015 18.6659 8.52148C18.4971 7.67282 18.0804 6.89326 17.4686 6.28141C16.8567 5.66956 16.0772 5.25288 15.2285 5.08407C14.3799 4.91526 13.5002 5.0019 12.7008 5.33303C11.9013 5.66416 11.2181 6.22492 10.7373 6.94438C10.2566 7.66385 10 8.50971 10 9.375C10.0041 10.5341 10.4664 11.6445 11.286 12.464C12.1055 13.2836 13.2159 13.7459 14.375 13.75V13.75ZM14.375 7.5C14.7458 7.5 15.1084 7.60997 15.4167 7.816C15.725 8.02202 15.9654 8.31486 16.1073 8.65747C16.2492 9.00008 16.2863 9.37708 16.214 9.7408C16.1416 10.1045 15.9631 10.4386 15.7008 10.7008C15.4386 10.9631 15.1045 11.1416 14.7408 11.214C14.3771 11.2863 14.0001 11.2492 13.6575 11.1073C13.3149 10.9654 13.022 10.725 12.816 10.4167C12.61 10.1084 12.5 9.74584 12.5 9.375C12.5 8.87772 12.6975 8.40081 13.0492 8.04918C13.4008 7.69755 13.8777 7.5 14.375 7.5ZM25.625 13.75C26.4903 13.75 27.3362 13.4934 28.0556 13.0127C28.7751 12.532 29.3358 11.8487 29.667 11.0492C29.9981 10.2498 30.0847 9.37015 29.9159 8.52148C29.7471 7.67282 29.3305 6.89326 28.7186 6.28141C28.1067 5.66956 27.3272 5.25288 26.4785 5.08407C25.6299 4.91526 24.7502 5.0019 23.9508 5.33303C23.1513 5.66416 22.4681 6.22492 21.9873 6.94438C21.5066 7.66385 21.25 8.50971 21.25 9.375C21.2541 10.5341 21.7164 11.6445 22.536 12.464C23.3555 13.2836 24.4659 13.7459 25.625 13.75ZM25.625 7.5C25.9958 7.5 26.3584 7.60997 26.6667 7.816C26.975 8.02202 27.2154 8.31486 27.3573 8.65747C27.4992 9.00008 27.5363 9.37708 27.464 9.7408C27.3916 10.1045 27.2131 10.4386 26.9508 10.7008C26.6886 10.9631 26.3545 11.1416 25.9908 11.214C25.6271 11.2863 25.2501 11.2492 24.9075 11.1073C24.5649 10.9654 24.272 10.725 24.066 10.4167C23.86 10.1084 23.75 9.74584 23.75 9.375C23.75 8.87772 23.9475 8.40081 24.2992 8.04918C24.6508 7.69755 25.1277 7.5 25.625 7.5ZM29.2344 23.25C28.5992 22.9009 28.0391 22.4301 27.586 21.8644C27.1329 21.2987 26.7957 20.6492 26.5938 19.9531C26.1832 18.5213 25.3178 17.2619 24.1282 16.3655C22.9386 15.469 21.4896 14.9841 20 14.9841C18.5104 14.9841 17.0614 15.469 15.8718 16.3655C14.6822 17.2619 13.8168 18.5213 13.4063 19.9531C12.9991 21.3546 12.0559 22.5392 10.7813 23.25C9.557 23.9108 8.58821 24.9611 8.02832 26.2347C7.46844 27.5083 7.34947 28.9322 7.69026 30.281C8.03105 31.6298 8.81211 32.8264 9.90974 33.6811C11.0074 34.5359 12.3588 35 13.75 35C14.5813 34.9992 15.4042 34.8346 16.1719 34.5156C18.617 33.5027 21.3633 33.4971 23.8125 34.5C24.5828 34.83 25.412 35.0001 26.25 35C27.6425 35.0035 28.9964 34.5419 30.0967 33.6884C31.197 32.8348 31.9807 31.6383 32.3235 30.2886C32.6663 28.9389 32.5485 27.5134 31.9889 26.2383C31.4293 24.9631 30.4598 23.9114 29.2344 23.25V23.25ZM26.25 32.5C25.7402 32.5025 25.2352 32.4015 24.7656 32.2031C23.2563 31.5715 21.6361 31.2475 20 31.25C18.3591 31.2504 16.7344 31.5743 15.2188 32.2031C14.7552 32.4033 14.2549 32.5044 13.75 32.5C12.9124 32.5018 12.0982 32.223 11.4375 31.7082C10.7767 31.1934 10.3073 30.4722 10.1041 29.6595C9.90096 28.8469 9.97573 27.9896 10.3165 27.2244C10.6573 26.4592 11.2444 25.8301 11.9844 25.4375C12.9029 24.9302 13.7123 24.2467 14.3665 23.4263C15.0207 22.6059 15.5067 21.6646 15.7969 20.6563C16.0601 19.745 16.6124 18.9439 17.3705 18.3739C18.1286 17.8038 19.0515 17.4955 20 17.4955C20.9485 17.4955 21.8714 17.8038 22.6295 18.3739C23.3876 18.9439 23.9399 19.745 24.2031 20.6563C24.4933 21.6646 24.9793 22.6059 25.6335 23.4263C26.2877 24.2467 27.0971 24.9302 28.0156 25.4375H28.0313C28.7724 25.8308 29.3603 26.4612 29.7008 27.228C30.0413 27.9948 30.1149 28.8536 29.9097 29.6672C29.7045 30.4807 29.2325 31.2019 28.569 31.7155C27.9055 32.2291 27.089 32.5053 26.25 32.5V32.5Z" fill="black"/>
</svg>
