<svg width="90" height="91" viewBox="0 0 90 91" fill="none" xmlns="http://www.w3.org/2000/svg">
<path d="M79.3477 65.8809C82.4062 63.5782 84.375 59.9571 84.375 55.8438C84.375 48.8565 78.7061 43.1875 71.7188 43.1875H69.2367C71.5957 41.1133 73.125 38.125 73.125 34.5918C73.125 28.3955 68.0713 23.5 61.875 23.5H60.8423C61.4883 21.7246 61.875 19.8438 61.875 17.7168C61.875 8.40039 54.3164 0.841797 45 0.841797C44.0771 0.841797 43.1982 0.973633 42.3422 1.10547C43.998 3.56992 45 6.38242 45 9.2793C45 17.0576 38.7158 23.3418 30.9375 23.3418H28.125C21.9287 23.3418 16.875 28.3955 16.875 34.4336C16.875 37.8174 18.4131 40.8057 20.7633 42.8711H18.2812C11.2939 43.0293 5.625 48.8653 5.625 55.8438C5.625 59.9535 7.60254 63.5782 10.6559 65.8862C4.61426 66.8477 0 72.0332 0 78.3438C0 85.3399 5.66895 91 12.6562 91H77.3438C84.3311 91 90 85.3311 90 78.3438C90 72.0332 85.3945 66.8477 79.3477 65.8809ZM33.75 46C36.8701 46 39.375 48.5049 39.375 51.625C39.375 54.7451 36.8701 57.25 33.75 57.25C30.6299 57.25 28.125 54.7539 28.125 51.625C28.125 48.4961 30.6387 46 33.75 46ZM61.7871 70.4336C59.7832 75.3379 51.3457 79.75 45 79.75C38.4979 79.75 30.0621 75.3344 28.2164 70.4336C27.8613 69.5196 28.5645 68.5 29.584 68.5H60.4336C61.4355 68.5 62.1387 69.5196 61.7871 70.4336ZM56.25 57.25C53.1299 57.25 50.625 54.7451 50.625 51.625C50.625 48.5049 53.1299 46 56.25 46C59.3701 46 61.875 48.5049 61.875 51.625C61.875 54.7451 59.3789 57.25 56.25 57.25Z" fill="#0DA3C4" fill-opacity="0.15"/>
</svg>
