<svg width="36" height="36" viewBox="0 0 36 36" fill="none" xmlns="http://www.w3.org/2000/svg">
<path d="M33.2969 14.0625C32.7031 13.4531 32.0937 12.8125 31.8594 12.2656C31.625 11.7188 31.6406 10.9063 31.625 10.0781C31.6094 8.5625 31.5781 6.82812 30.375 5.625C29.1719 4.42187 27.4375 4.39062 25.9219 4.375C25.0937 4.35937 24.25 4.34375 23.7344 4.14062C23.2187 3.9375 22.5469 3.29688 21.9375 2.70313C20.8594 1.67188 19.625 0.5 18 0.5C16.375 0.5 15.1406 1.67188 14.0625 2.70313C13.4531 3.29688 12.8125 3.90625 12.2656 4.14062C11.7188 4.375 10.9063 4.35937 10.0781 4.375C8.5625 4.39062 6.82812 4.42187 5.625 5.625C4.42187 6.82812 4.39062 8.5625 4.375 10.0781C4.35937 10.9063 4.34375 11.75 4.14062 12.2656C3.9375 12.7813 3.29688 13.4531 2.70313 14.0625C1.67188 15.1406 0.5 16.375 0.5 18C0.5 19.625 1.67188 20.8594 2.70313 21.9375C3.29688 22.5469 3.90625 23.1875 4.14062 23.7344C4.375 24.2812 4.35937 25.0937 4.375 25.9219C4.39062 27.4375 4.42187 29.1719 5.625 30.375C6.82812 31.5781 8.5625 31.6094 10.0781 31.625C10.9063 31.6406 11.75 31.6562 12.2656 31.8594C12.7813 32.0625 13.4531 32.7031 14.0625 33.2969C15.1406 34.3281 16.375 35.5 18 35.5C19.625 35.5 20.8594 34.3281 21.9375 33.2969C22.5469 32.7031 23.1875 32.0937 23.7344 31.8594C24.2812 31.625 25.0937 31.6406 25.9219 31.625C27.4375 31.6094 29.1719 31.5781 30.375 30.375C31.5781 29.1719 31.6094 27.4375 31.625 25.9219C31.6406 25.0937 31.6562 24.25 31.8594 23.7344C32.0625 23.2187 32.7031 22.5469 33.2969 21.9375C34.3281 20.8594 35.5 19.625 35.5 18C35.5 16.375 34.3281 15.1406 33.2969 14.0625V14.0625ZM31.4844 20.2031C30.7344 20.9844 29.9687 21.7969 29.5469 22.7813C29.125 23.7656 29.1406 24.8281 29.125 25.875C29.1094 26.9219 29.0937 28.125 28.6094 28.6094C28.125 29.0937 26.9844 29.1094 25.875 29.125C24.7656 29.1406 23.7344 29.1562 22.7813 29.5469C21.8281 29.9375 20.9844 30.7344 20.2031 31.4844C19.4219 32.2344 18.625 33 18 33C17.375 33 16.5781 32.2344 15.7969 31.4844C15.0156 30.7344 14.2031 29.9687 13.2188 29.5469C12.2344 29.125 11.1719 29.1406 10.125 29.125C9.07812 29.1094 7.875 29.0937 7.39062 28.6094C6.90625 28.125 6.89062 26.9844 6.875 25.875C6.85937 24.7656 6.84375 23.7344 6.45312 22.7813C6.0625 21.8281 5.26563 20.9844 4.51563 20.2031C3.76563 19.4219 3 18.625 3 18C3 17.375 3.76563 16.5781 4.51563 15.7969C5.26563 15.0156 6.03125 14.2031 6.45312 13.2188C6.875 12.2344 6.85937 11.1719 6.875 10.125C6.89062 9.07812 6.90625 7.875 7.39062 7.39062C7.875 6.90625 9.01562 6.89062 10.125 6.875C11.2344 6.85937 12.2656 6.84375 13.2188 6.45312C14.1719 6.0625 15.0156 5.26563 15.7969 4.51563C16.5781 3.76563 17.375 3 18 3C18.625 3 19.4219 3.76563 20.2031 4.51563C20.9844 5.26563 21.7969 6.03125 22.7813 6.45312C23.7656 6.875 24.8281 6.85937 25.875 6.875C26.9219 6.89062 28.125 6.90625 28.6094 7.39062C29.0937 7.875 29.1094 9.01562 29.125 10.125C29.1406 11.2344 29.1562 12.2656 29.5469 13.2188C29.9375 14.1719 30.7344 15.0156 31.4844 15.7969C32.2344 16.5781 33 17.375 33 18C33 18.625 32.2344 19.4219 31.4844 20.2031ZM19.875 26.125C19.875 26.4958 19.765 26.8584 19.559 27.1667C19.353 27.475 19.0601 27.7154 18.7175 27.8573C18.3749 27.9992 17.9979 28.0363 17.6342 27.964C17.2705 27.8916 16.9364 27.713 16.6742 27.4508C16.412 27.1886 16.2334 26.8545 16.161 26.4908C16.0887 26.1271 16.1258 25.7501 16.2677 25.4075C16.4096 25.0649 16.65 24.772 16.9583 24.566C17.2666 24.36 17.6292 24.25 18 24.25C18.4973 24.25 18.9742 24.4475 19.3258 24.7992C19.6775 25.1508 19.875 25.6277 19.875 26.125ZM23.625 14.875C23.625 16.1496 23.1921 17.3864 22.3973 18.3828C21.6024 19.3792 20.4927 20.0761 19.25 20.3594V20.5C19.25 20.8315 19.1183 21.1495 18.8839 21.3839C18.6495 21.6183 18.3315 21.75 18 21.75C17.6685 21.75 17.3505 21.6183 17.1161 21.3839C16.8817 21.1495 16.75 20.8315 16.75 20.5V19.25C16.75 18.9185 16.8817 18.6005 17.1161 18.3661C17.3505 18.1317 17.6685 18 18 18C18.6181 18 19.2223 17.8167 19.7362 17.4733C20.2501 17.13 20.6506 16.6419 20.8871 16.0709C21.1236 15.4999 21.1855 14.8715 21.065 14.2653C20.9444 13.6592 20.6467 13.1023 20.2097 12.6653C19.7727 12.2283 19.2158 11.9306 18.6097 11.81C18.0035 11.6895 17.3751 11.7514 16.8041 11.9879C16.2331 12.2244 15.745 12.6249 15.4017 13.1388C15.0583 13.6527 14.875 14.2569 14.875 14.875C14.875 15.2065 14.7433 15.5245 14.5089 15.7589C14.2745 15.9933 13.9565 16.125 13.625 16.125C13.2935 16.125 12.9755 15.9933 12.7411 15.7589C12.5067 15.5245 12.375 15.2065 12.375 14.875C12.375 13.3832 12.9676 11.9524 14.0225 10.8975C15.0774 9.84263 16.5082 9.25 18 9.25C19.4918 9.25 20.9226 9.84263 21.9775 10.8975C23.0324 11.9524 23.625 13.3832 23.625 14.875V14.875Z" fill="#0DA3C4"/>
</svg>
