<svg width="24" height="24" viewBox="0 0 24 24" fill="none" xmlns="http://www.w3.org/2000/svg">
<path d="M9.78506 1.80564C10.3183 -0.554924 13.6817 -0.554924 14.2149 1.80564C14.5605 3.33553 16.3162 4.06273 17.6423 3.2253C19.6885 1.93317 22.0668 4.31149 20.7747 6.3577C19.9373 7.68386 20.6645 9.43949 22.1944 9.78506C24.5549 10.3183 24.5549 13.6817 22.1944 14.2149C20.6645 14.5605 19.9373 16.3162 20.7747 17.6423C22.0668 19.6885 19.6885 22.0668 17.6423 20.7747C16.3162 19.9373 14.5605 20.6645 14.2149 22.1944C13.6817 24.5549 10.3183 24.5549 9.78506 22.1944C9.43949 20.6645 7.68386 19.9373 6.3577 20.7747C4.31149 22.0668 1.93317 19.6885 3.2253 17.6423C4.06273 16.3162 3.33553 14.5605 1.80564 14.2149C-0.554924 13.6817 -0.554924 10.3183 1.80564 9.78506C3.33553 9.43949 4.06273 7.68386 3.2253 6.3577C1.93317 4.31149 4.31149 1.93317 6.3577 3.2253C7.68386 4.06273 9.43949 3.33553 9.78506 1.80564Z" fill="white"/>
<path d="M16 12C16 14.2091 14.2091 16 12 16C9.79087 16 8.00001 14.2091 8.00001 12C8.00001 9.79087 9.79087 8.00001 12 8.00001C14.2091 8.00001 16 9.79087 16 12Z" fill="#0DA3C4"/>
</svg>
