<svg width="40" height="40" viewBox="0 0 40 40" fill="none" xmlns="http://www.w3.org/2000/svg">
<path d="M26.2501 5C21.7776 5 18.0863 8.39375 17.5776 12.735L7.50007 26.9912L6.91382 27.85L7.61757 28.5925L8.63257 29.6087L5.35132 32.85L7.15007 34.65L10.3526 31.4075L12.0701 33.125L12.9688 32.5L27.3051 22.4212C31.6301 21.9 35.0001 18.2125 35.0001 13.75C35.0001 8.93125 31.0688 5 26.2501 5ZM26.2501 7.5C29.7163 7.5 32.5001 10.2837 32.5001 13.75C32.5042 14.9705 32.1509 16.1655 31.4838 17.1875L22.8126 8.515C23.8347 7.84832 25.0297 7.49548 26.2501 7.5V7.5ZM21.0151 10.3125L29.6876 18.985C28.6654 19.6517 27.4704 20.0045 26.2501 20C22.7838 20 20.0001 17.2162 20.0001 13.75C19.9959 12.5295 20.3492 11.3345 21.0163 10.3125H21.0151ZM17.9688 16.485C18.3999 17.77 19.1209 18.9386 20.0759 19.9003C21.0309 20.862 22.1944 21.5912 23.4763 22.0312L12.3826 29.8825L10.1563 27.5787L17.9688 16.485Z" fill="black"/>
</svg>
