<svg width="40" height="40" viewBox="0 0 40 40" fill="none" xmlns="http://www.w3.org/2000/svg">
<path fill-rule="evenodd" clip-rule="evenodd" d="M26.1049 6.605C26.2073 6.59496 26.3098 6.58662 26.4124 6.58C26.6129 5.78145 27.0758 5.07335 27.7268 4.56925C28.3777 4.06516 29.1791 3.79426 30.0024 3.8V7.0675C31.8978 7.82082 33.575 9.03565 34.8817 10.6017C36.1884 12.1677 37.0832 14.0354 37.4849 16.035V17.01C36.3374 19.1 32.7199 19.835 32.0999 19.96C32.0324 19.975 31.9999 19.9825 32.0124 19.9825C38.0599 20.7825 37.4874 25.605 37.4874 25.605C37.4431 26.2373 37.1602 26.8291 36.6961 27.2607C36.232 27.6923 35.6213 27.9316 34.9874 27.93C34.3074 27.8825 33.6424 27.73 33.0124 27.48H27.8624C28.3088 28.2531 28.6136 29.0997 28.7624 29.98H29.5624C31.0743 30.2078 32.4539 30.9714 33.4498 32.1316C34.4456 33.2917 34.9913 34.7711 34.9874 36.3C35.0085 36.4438 34.9994 36.5904 34.9609 36.7305C34.9223 36.8707 34.8551 37.0013 34.7634 37.1141C34.6718 37.2269 34.5577 37.3194 34.4284 37.3858C34.2992 37.4523 34.1575 37.4911 34.0124 37.5H17.3199C15.9621 37.5689 14.6055 37.3425 13.3437 36.8363C12.0818 36.3301 10.9448 35.5563 10.0111 34.5681C9.07729 33.5799 8.369 32.4009 7.93504 31.1125C7.50108 29.824 7.35178 28.4567 7.49744 27.105C7.56448 25.2108 8.21983 23.3846 9.37244 21.88L9.64745 21.53C10.7224 20.155 11.3474 19.2575 11.0224 18.3075C10.6974 17.3575 10.1099 17.3075 10.1099 17.3075C10.1099 17.3075 9.64745 17.2325 8.97244 17.5325C8.42245 17.8525 7.82244 18.0825 7.19744 18.2075C6.32502 18.3731 5.42224 18.2399 4.6348 17.8294C3.84737 17.4189 3.22123 16.7551 2.85744 15.945C2.61995 15.425 2.49995 14.8575 2.49995 14.285C2.48495 12.49 3.32495 10.6475 4.31245 9.065C5.29849 7.48328 6.62591 6.14219 8.19745 5.14C10.2171 4.06073 12.5462 3.70771 14.7949 4.14C16.3874 4.4201 17.8495 5.19931 18.9699 6.365C19.8633 7.33886 20.5286 8.49945 20.9174 9.7625C21.3755 9.08214 21.9088 8.45567 22.5074 7.895V7.4975C22.5013 6.53222 22.8752 5.60329 23.5484 4.91143C24.2215 4.21957 25.1399 3.82034 26.1049 3.8V6.605ZM12.8449 28.4525C12.5674 30.305 12.2949 33.005 15.0124 34.5575C15.7524 34.815 16.5324 34.9575 17.3199 34.975H31.9624C31.9645 34.3452 31.7287 33.7378 31.3023 33.2743C30.8759 32.8109 30.2902 32.5254 29.6624 32.475H26.4649V31.2275C26.4907 30.0827 26.0765 28.9715 25.3078 28.1228C24.5391 27.2741 23.4742 26.7524 22.3324 26.665L23.8974 24.4475C24.4874 24.615 25.0549 24.83 25.3399 25.03H33.3624C33.5913 25.0477 33.8149 25.107 34.0224 25.205C34.3674 25.3425 34.7074 25.4775 35.0124 25.28C35.5124 24.955 34.7374 22.48 32.4874 22.48H29.9874C28.7624 22.48 28.5624 21.13 28.5624 21.13L27.8624 18.3075C29.1488 18.4924 30.4605 18.3788 31.696 17.9757C32.9315 17.5725 34.0577 16.8905 34.9874 15.9825C34.5889 14.1672 33.6046 12.5334 32.1861 11.3326C30.7676 10.1319 28.9936 9.43082 27.1374 9.3375L26.9299 9.3425C26.2799 9.3625 25.8424 9.3775 24.9899 9.7625C22.6649 10.8125 19.6174 15.935 19.6174 15.935L19.4674 16.16H19.0424V15.985C19.1924 14.8775 19.0924 12.325 18.7524 11.26C18.4099 10.2 17.8349 9.225 17.0699 8.41C16.1887 7.53013 15.0506 6.95319 13.8199 6.7625C12.2335 6.42432 10.5781 6.68242 9.16995 7.4875C8.01995 8.1975 7.04495 9.1625 6.32245 10.305C5.59995 11.4475 5.13245 12.395 4.98495 13.74C4.98745 13.79 4.98494 13.8575 4.97995 13.9425C4.96244 14.3 4.92995 14.9175 5.29995 15.31C5.61744 15.6475 6.41994 15.885 6.97495 15.76C7.37098 15.6691 7.7505 15.5173 8.09995 15.31C8.5203 15.0469 8.99418 14.8812 9.48688 14.825C9.97958 14.7687 10.4786 14.8234 10.9474 14.985C11.5185 15.1692 12.0336 15.495 12.4445 15.9322C12.8555 16.3694 13.1489 16.9037 13.2974 17.485C13.5478 18.4759 13.5317 19.5153 13.2507 20.4979C12.9697 21.4805 12.4338 22.3713 11.6974 23.08L11.4224 23.43C10.5549 24.515 10.0574 25.845 9.99744 27.23C9.95562 28.4623 10.2184 29.686 10.7624 30.7925C10.8602 29.6237 11.2599 28.5003 11.9224 27.5325L12.8474 28.4525H12.8449ZM29.3999 12.5C29.7315 12.5 30.0494 12.6317 30.2838 12.8661C30.5182 13.1005 30.6499 13.4185 30.6499 13.75C30.6499 14.0815 30.5182 14.3995 30.2838 14.6339C30.0494 14.8683 29.7315 15 29.3999 15C29.0684 15 28.7505 14.8683 28.5161 14.6339C28.2816 14.3995 28.1499 14.0815 28.1499 13.75C28.1499 13.4185 28.2816 13.1005 28.5161 12.8661C28.7505 12.6317 29.0684 12.5 29.3999 12.5Z" fill="#0DA3C4"/>
</svg>
