<svg width="92" height="55" viewBox="0 0 92 55" fill="none" xmlns="http://www.w3.org/2000/svg">
<path d="M42.2731 0C34.6704 0 27.5256 3.02278 22.3045 7.92335C20.7931 3.34338 16.5337 0 11.4499 0C8.41322 0 5.50089 1.20633 3.35361 3.35361C1.20633 5.50089 0 8.41322 0 11.4499C0 14.4866 1.20633 17.399 3.35361 19.5463C5.50089 21.6935 8.41322 22.8999 11.4499 22.8999C12.4117 22.8999 13.3277 22.7625 14.2437 22.5335C14.0147 23.6785 13.8315 24.8692 13.7857 26.1058C13.5844 30.0935 14.2536 34.0771 15.7468 37.7801C17.2401 41.483 19.5215 44.8165 22.4327 47.5491C25.3439 50.2816 28.815 52.3476 32.605 53.6036C36.395 54.8595 40.413 55.2754 44.3799 54.8223C56.0589 53.5399 65.8142 44.4715 68.15 32.9758C68.837 29.724 68.837 26.5638 68.4248 23.5411C68.0126 20.7931 70.1652 18.3657 72.959 18.3657H91.5994V0H42.2731ZM11.4499 13.7399C10.1675 13.7399 9.15994 12.7323 9.15994 11.4499C9.15994 10.1675 10.1675 9.15994 11.4499 9.15994C12.7323 9.15994 13.7399 10.1675 13.7399 11.4499C13.7399 12.7323 12.7323 13.7399 11.4499 13.7399ZM41.2197 41.2197C33.617 41.2197 27.4798 35.0826 27.4798 27.4798C27.4798 19.8771 33.617 13.7399 41.2197 13.7399C48.8225 13.7399 54.9597 19.8771 54.9597 27.4798C54.9597 35.0826 48.8225 41.2197 41.2197 41.2197Z" fill="#0DA3C4" fill-opacity="0.15"/>
<path d="M41.22 36.6398C46.2789 36.6398 50.3799 32.5387 50.3799 27.4798C50.3799 22.4209 46.2789 18.3199 41.22 18.3199C36.1611 18.3199 32.0601 22.4209 32.0601 27.4798C32.0601 32.5387 36.1611 36.6398 41.22 36.6398Z" fill="#0DA3C4" fill-opacity="0.15"/>
</svg>
