<svg width="90" height="87" viewBox="0 0 90 87" fill="none" xmlns="http://www.w3.org/2000/svg">
<g clip-path="url(#clip0_201_490)">
<path d="M44.7919 86.6573C43.3906 86.6561 42.022 86.2164 40.8641 85.3952C23.7126 73.2833 16.2846 64.9665 12.191 59.7867C3.46248 48.7233 -0.718474 37.3604 -0.596275 25.0577C-0.460983 10.9573 10.4104 -0.514542 23.6384 -0.514542C32.5415 -0.514542 38.9133 4.31119 42.8847 8.75104C43.1295 9.02032 43.4245 9.23482 43.7516 9.38142C44.0788 9.52802 44.4313 9.60363 44.7876 9.60363C45.1438 9.60363 45.4963 9.52802 45.8235 9.38142C46.1507 9.23482 46.4456 9.02032 46.6904 8.75104C50.6662 4.31119 57.0336 -0.514542 65.9367 -0.514542C79.1648 -0.514542 90.0361 10.9573 90.1714 25.0577C90.2936 37.3604 86.1083 48.7233 77.3841 59.7867C73.2905 64.9801 65.8625 73.2833 48.711 85.3952C47.5556 86.2146 46.1903 86.6543 44.7919 86.6573Z" fill="#0DA3C4" fill-opacity="0.15"/>
</g>
<defs>
<clipPath id="clip0_201_490">
<rect width="90" height="86.4" fill="white"/>
</clipPath>
</defs>
</svg>
