<svg width="106" height="106" viewBox="0 0 106 106" fill="none" xmlns="http://www.w3.org/2000/svg">
<path d="M22.0834 58.2117V70.6225C22.0834 73.8467 23.8501 76.85 26.6767 78.3958L48.7601 90.4533C51.4101 91.9108 54.5901 91.9108 57.2401 90.4533L79.3234 78.3958C82.1501 76.85 83.9167 73.8467 83.9167 70.6225V58.2117L57.2401 72.7867C54.5901 74.2442 51.4101 74.2442 48.7601 72.7867L22.0834 58.2117ZM48.7601 15.5467L11.5276 35.8633C8.48007 37.5417 8.48007 41.9583 11.5276 43.6367L48.7601 63.9533C51.4101 65.4108 54.5901 65.4108 57.2401 63.9533L92.7501 44.5642V70.6667C92.7501 73.0958 94.7376 75.0833 97.1667 75.0833C99.5959 75.0833 101.583 73.0958 101.583 70.6667V42.3558C101.583 40.7217 100.7 39.2642 99.2867 38.4692L57.2401 15.5467C55.9351 14.8507 54.479 14.4867 53.0001 14.4867C51.5212 14.4867 50.065 14.8507 48.7601 15.5467V15.5467Z" fill="#0DA3C4" fill-opacity="0.15"/>
</svg>
